<svg xmlns="http://www.w3.org/2000/svg" viewBox="0 0 64 64" width="64" height="64">
  <defs>
    <linearGradient id="cg" x1="0" y1="1" x2="0" y2="0">
      <stop offset="0%" stop-color="#cc1a6a"/>
      <stop offset="100%" stop-color="#ff2d87"/>
    </linearGradient>
    <radialGradient id="eg" cx="50%" cy="60%" r="50%">
      <stop offset="0%" stop-color="#f5f5f5"/>
      <stop offset="100%" stop-color="#d0d0d0"/>
    </radialGradient>
  </defs>

  <!-- Egg bottom -->
  <path d="M18,36 Q18,30 22,28 L32,30 L42,28 Q46,30 46,36 Q46,52 32,54 Q18,52 18,36Z" fill="url(#eg)" stroke="#b0b0b0" stroke-width="1"/>

  <!-- Jagged crack edge -->
  <path d="M22,28 L25,32 L28,26 L32,30 L36,25 L39,31 L42,28" fill="none" stroke="#999" stroke-width="1.2" stroke-linejoin="round"/>

  <!-- Shell fragments -->
  <polygon points="12,22 15,18 16,24" fill="#e0e0e0" stroke="#b0b0b0" stroke-width="0.5"/>
  <polygon points="48,20 52,17 51,24" fill="#e0e0e0" stroke="#b0b0b0" stroke-width="0.5"/>
  <rect x="20" y="18" width="3" height="3" rx="0.5" fill="#ddd" transform="rotate(-20,21,19)" opacity="0.7"/>
  <rect x="41" y="17" width="3" height="3" rx="0.5" fill="#ddd" transform="rotate(25,42,18)" opacity="0.7"/>

  <!-- Claw prongs -->
  <path d="M25,32 Q24,22 21,14 L23,13 Q25,18 27,28Z" fill="url(#cg)" stroke="#aa1555" stroke-width="0.6"/>
  <path d="M21,14 L20,8 L24,12Z" fill="#ff6aab"/>
  <path d="M30,30 Q31,20 32,12 Q33,20 34,30Z" fill="url(#cg)" stroke="#aa1555" stroke-width="0.6"/>
  <path d="M31,12 L32,5 L33,12Z" fill="#ff6aab"/>
  <path d="M39,32 Q40,22 43,14 L41,13 Q39,18 37,28Z" fill="url(#cg)" stroke="#aa1555" stroke-width="0.6"/>
  <path d="M43,14 L44,8 L40,12Z" fill="#ff6aab"/>

  <!-- Claw base -->
  <ellipse cx="32" cy="33" rx="8" ry="4" fill="url(#cg)"/>

  <!-- Cyan glow dots -->
  <circle cx="16" cy="18" r="1.2" fill="#00e5ff" opacity="0.7"/>
  <circle cx="48" cy="16" r="1.2" fill="#00e5ff" opacity="0.7"/>
  <circle cx="32" cy="8" r="1" fill="#00e5ff" opacity="0.6"/>
</svg>